<?xml version="1.0" encoding="UTF-8" standalone="no"?>
<!DOCTYPE svg PUBLIC "-//W3C//DTD SVG 1.1//EN" "http://www.w3.org/Graphics/SVG/1.1/DTD/svg11.dtd">
<svg width="100%" height="100%" viewBox="0 0 237 166" version="1.1" xmlns="http://www.w3.org/2000/svg" xmlns:xlink="http://www.w3.org/1999/xlink" xml:space="preserve" xmlns:serif="http://www.serif.com/" style="fill-rule:evenodd;clip-rule:evenodd;stroke-linejoin:round;stroke-miterlimit:2;">
    <g transform="matrix(1,0,0,1,-913,0)">
        <g id="Layer1">
        </g>
        <g id="Artboard2" transform="matrix(0.57721,0,0,0.476592,385.599,0.960857)">
            <rect x="913.708" y="-2.016" width="409.349" height="348.054" style="fill:none;"/>
            <path d="M937.907,215.956C933.5,215.956 930.236,215.05 928.115,213.237C925.995,211.424 924.643,208.981 924.061,205.91C923.479,202.838 923.188,199.489 923.188,195.863L923.188,24.245C923.188,20.72 923.5,17.497 924.123,14.576C924.747,11.656 926.119,9.289 928.24,7.476C930.36,5.663 933.666,4.757 938.157,4.757L1004.02,4.757C1013.67,4.757 1022.17,7.451 1029.53,12.839C1036.89,18.227 1042.67,25.428 1046.87,34.442C1051.07,43.456 1053.12,53.301 1053.04,63.977C1053.12,68.811 1052.69,73.57 1051.73,78.253C1050.77,82.937 1049.34,87.318 1047.43,91.397C1045.51,95.476 1043.14,99.076 1040.32,102.198C1044.22,105.824 1047.57,110.281 1050.36,115.568C1053.14,120.856 1055.27,126.571 1056.72,132.715C1058.17,138.859 1058.9,145.204 1058.9,151.75C1058.74,160.815 1057.32,169.249 1054.66,177.055C1052,184.86 1048.28,191.658 1043.5,197.45C1038.72,203.241 1033.16,207.773 1026.85,211.046C1020.52,214.319 1013.75,215.956 1006.51,215.956L937.907,215.956ZM953.451,81.039C953.451,85.673 956.55,89.429 960.376,89.432L1000.98,89.464C1003.14,89.464 1005.51,89.364 1008.09,89.162C1010.66,88.961 1013.12,88.231 1015.45,86.972C1017.77,85.713 1019.69,83.547 1021.18,80.476C1022.68,77.404 1023.43,72.998 1023.43,67.257C1023.43,58.192 1021.47,51.596 1017.57,47.466C1013.66,43.337 1007,41.272 997.608,41.272L960.38,41.272C958.542,41.272 956.78,42.157 955.48,43.731C954.181,45.305 953.451,47.439 953.451,49.665L953.451,81.039ZM992.743,107.87C980.037,106.833 967.283,109.695 962.08,116.146C960.515,118.085 957.082,121.444 955.26,126.203C954.338,128.612 952.787,132.236 950.364,132.989C946.868,134.075 944.639,136.078 943.071,138.047C939.889,142.041 936.544,145.7 934.815,152.654C934.008,155.904 934.502,165.372 937.945,169.027C942.956,174.346 948.206,174.7 953.216,171.602C957.021,169.248 955.132,167.59 956.355,171.131C958.08,176.127 960.607,179.068 964.344,182.178C970.055,186.931 973.015,188.081 977.01,188.46C980.04,188.747 987.153,189.529 990.897,189.446C996.631,189.32 1003.69,188.629 1007.92,185.772C1011.3,183.484 1013.81,182.246 1016.77,176.705C1019.23,172.105 1018.78,169.07 1020.47,173.221C1021.29,175.246 1023.56,177.543 1025.39,177.743C1026.52,177.865 1030.58,178.207 1032.04,177.336C1036.59,174.624 1039.25,171.368 1039.5,165.928C1039.63,162.922 1038.43,158.787 1036.54,152.763C1035.72,150.16 1033.63,145.743 1028.59,142.149C1026.2,140.442 1023.94,139.587 1023.83,138.109C1023.76,137.087 1022.65,129.842 1020.64,126.38C1017.72,121.374 1012.1,116.567 1009.71,114.465C1007.37,112.417 998.103,108.307 992.743,107.87ZM984.771,161.402C985.06,159.96 986.58,160.019 988.585,160.332C992.233,160.904 992.267,163.093 988.925,166.369C988.212,167.069 989.757,168.081 990.637,168.085C992.993,168.097 994.288,167.426 994.353,168.335C994.392,168.871 993.803,169.604 992.232,170.026C991.018,170.353 989.824,170.447 987.731,170.139C985.944,169.875 984.102,169.235 983.117,168.615C980.894,167.216 981.481,166.016 983.075,166.582C985.234,167.348 986.96,167.181 986.494,166.326C986.028,165.469 984.515,162.676 984.771,161.402ZM967.8,153.266C969.441,150.56 971.986,152.528 972.278,156.623C972.327,157.302 972.333,157.898 972.292,158.421C972.146,160.267 971.408,161.197 969.858,161.671C967.684,162.334 966.77,160.91 966.537,157.653C966.377,155.412 967.375,153.97 967.8,153.266ZM1002.78,157.387C1004.72,153.493 1007.99,154.845 1008.34,159.684C1008.55,162.69 1007.9,164.127 1006.07,164.687C1003,165.629 1000.95,161.079 1002.78,157.387Z" style="fill:rgb(0,77,255);"/>
            <g transform="matrix(1.73247,0,0,2.09823,568.178,-1.04926)">
                <g transform="matrix(60,0,0,60,293.933,45.3966)">
                    <path d="M0.224,0.01C0.199,0.01 0.178,0.008 0.159,0.005C0.139,0.002 0.123,-0.004 0.11,-0.012C0.096,-0.02 0.085,-0.031 0.076,-0.044C0.067,-0.058 0.06,-0.075 0.056,-0.095C0.052,-0.115 0.05,-0.139 0.05,-0.167L0.05,-0.649C0.05,-0.66 0.051,-0.671 0.053,-0.68C0.055,-0.689 0.061,-0.696 0.069,-0.701C0.078,-0.707 0.091,-0.709 0.11,-0.71C0.128,-0.709 0.142,-0.707 0.15,-0.702C0.158,-0.696 0.164,-0.689 0.166,-0.68C0.168,-0.671 0.17,-0.661 0.17,-0.65L0.17,-0.172C0.17,-0.159 0.17,-0.149 0.172,-0.141C0.174,-0.132 0.177,-0.125 0.182,-0.12C0.186,-0.115 0.192,-0.112 0.199,-0.11C0.206,-0.108 0.214,-0.107 0.224,-0.107C0.232,-0.107 0.24,-0.106 0.247,-0.104C0.254,-0.101 0.26,-0.096 0.264,-0.089C0.269,-0.081 0.271,-0.068 0.271,-0.05C0.271,-0.031 0.269,-0.017 0.264,-0.009C0.26,-0 0.254,0.005 0.247,0.007C0.24,0.009 0.232,0.01 0.224,0.01Z" style="fill:rgb(0,77,255);fill-rule:nonzero;"/>
                </g>
                <g transform="matrix(60,0,0,60,310.793,45.3966)">
                    <path d="M0.256,0.01C0.225,0.01 0.197,0.004 0.171,-0.007C0.145,-0.018 0.123,-0.034 0.104,-0.055C0.084,-0.076 0.069,-0.1 0.059,-0.129C0.048,-0.157 0.043,-0.189 0.043,-0.224L0.043,-0.423C0.043,-0.434 0.044,-0.444 0.046,-0.454C0.048,-0.463 0.053,-0.47 0.062,-0.475C0.07,-0.48 0.084,-0.483 0.102,-0.483C0.121,-0.483 0.135,-0.48 0.143,-0.475C0.151,-0.469 0.157,-0.462 0.159,-0.453C0.161,-0.444 0.162,-0.433 0.162,-0.422L0.162,-0.224C0.162,-0.2 0.166,-0.179 0.174,-0.162C0.182,-0.144 0.195,-0.131 0.211,-0.121C0.227,-0.112 0.247,-0.107 0.27,-0.107C0.294,-0.107 0.314,-0.112 0.331,-0.122C0.348,-0.131 0.361,-0.145 0.371,-0.162C0.38,-0.18 0.385,-0.2 0.385,-0.224L0.385,-0.424C0.385,-0.435 0.386,-0.445 0.388,-0.454C0.39,-0.463 0.395,-0.47 0.404,-0.475C0.412,-0.48 0.426,-0.483 0.445,-0.483C0.463,-0.483 0.477,-0.48 0.485,-0.475C0.493,-0.469 0.498,-0.462 0.5,-0.453C0.502,-0.444 0.504,-0.434 0.504,-0.423L0.504,-0.048C0.504,-0.038 0.502,-0.028 0.5,-0.02C0.498,-0.011 0.493,-0.004 0.485,0.001C0.476,0.006 0.463,0.009 0.444,0.009C0.431,0.009 0.42,0.008 0.412,0.005C0.404,0.002 0.399,-0.002 0.395,-0.007C0.391,-0.012 0.389,-0.017 0.388,-0.023C0.387,-0.028 0.387,-0.034 0.387,-0.039L0.395,-0.066C0.391,-0.06 0.385,-0.053 0.377,-0.045C0.369,-0.036 0.359,-0.028 0.347,-0.02C0.335,-0.011 0.322,-0.004 0.307,0.001C0.292,0.007 0.275,0.01 0.256,0.01Z" style="fill:rgb(0,77,255);fill-rule:nonzero;"/>
                </g>
                <g transform="matrix(60,0,0,60,343.853,45.3966)">
                    <path d="M0.29,0.017C0.247,0.017 0.209,0.009 0.176,-0.005C0.144,-0.019 0.117,-0.038 0.095,-0.062C0.074,-0.086 0.057,-0.114 0.047,-0.144C0.035,-0.174 0.03,-0.206 0.03,-0.239C0.03,-0.287 0.041,-0.329 0.063,-0.367C0.085,-0.404 0.116,-0.433 0.155,-0.455C0.194,-0.476 0.238,-0.487 0.289,-0.487C0.325,-0.487 0.356,-0.481 0.384,-0.47C0.411,-0.459 0.434,-0.444 0.452,-0.426C0.471,-0.407 0.485,-0.387 0.494,-0.365C0.504,-0.343 0.509,-0.322 0.509,-0.301C0.509,-0.265 0.5,-0.24 0.483,-0.224C0.466,-0.208 0.445,-0.2 0.42,-0.2L0.156,-0.2C0.157,-0.177 0.164,-0.157 0.178,-0.141C0.191,-0.124 0.208,-0.112 0.229,-0.103C0.25,-0.093 0.272,-0.089 0.294,-0.089C0.311,-0.089 0.325,-0.09 0.338,-0.092C0.351,-0.094 0.362,-0.096 0.372,-0.099C0.381,-0.102 0.389,-0.106 0.396,-0.109C0.403,-0.112 0.41,-0.115 0.416,-0.118C0.422,-0.12 0.427,-0.122 0.433,-0.123C0.44,-0.124 0.448,-0.122 0.455,-0.118C0.462,-0.114 0.468,-0.107 0.473,-0.097C0.477,-0.09 0.48,-0.084 0.482,-0.079C0.483,-0.073 0.484,-0.067 0.484,-0.062C0.484,-0.049 0.476,-0.036 0.46,-0.024C0.444,-0.012 0.421,-0.003 0.392,0.005C0.363,0.013 0.329,0.017 0.29,0.017ZM0.156,-0.271L0.361,-0.271C0.372,-0.271 0.381,-0.273 0.387,-0.276C0.393,-0.28 0.396,-0.288 0.396,-0.3C0.396,-0.315 0.391,-0.329 0.382,-0.341C0.372,-0.353 0.36,-0.363 0.344,-0.37C0.328,-0.377 0.309,-0.381 0.288,-0.381C0.263,-0.381 0.241,-0.376 0.221,-0.366C0.201,-0.356 0.185,-0.343 0.173,-0.327C0.162,-0.31 0.156,-0.291 0.156,-0.271Z" style="fill:rgb(0,77,255);fill-rule:nonzero;"/>
                </g>
                <g transform="matrix(60,0,0,60,376.163,45.3966)">
                </g>
            </g>
            <g transform="matrix(1.75141,0,0,2.09823,404.653,241.186)">
                <g transform="matrix(40,0,0,40,293.933,45.3966)">
                    <path d="M0.395,0.012C0.343,0.012 0.296,0.004 0.255,-0.013C0.213,-0.03 0.178,-0.055 0.148,-0.087C0.118,-0.118 0.096,-0.156 0.08,-0.201C0.064,-0.245 0.056,-0.295 0.056,-0.35C0.056,-0.402 0.064,-0.449 0.081,-0.491C0.097,-0.533 0.121,-0.569 0.151,-0.599C0.182,-0.629 0.218,-0.653 0.261,-0.67C0.304,-0.686 0.352,-0.695 0.405,-0.696C0.425,-0.696 0.447,-0.694 0.468,-0.69C0.49,-0.686 0.511,-0.681 0.531,-0.673C0.551,-0.666 0.569,-0.657 0.585,-0.647C0.597,-0.639 0.606,-0.632 0.614,-0.624C0.622,-0.617 0.626,-0.609 0.627,-0.601C0.628,-0.597 0.627,-0.592 0.625,-0.586C0.623,-0.58 0.62,-0.574 0.617,-0.569C0.611,-0.561 0.606,-0.555 0.6,-0.551C0.593,-0.547 0.587,-0.546 0.581,-0.546C0.578,-0.546 0.573,-0.547 0.567,-0.551C0.56,-0.554 0.552,-0.559 0.542,-0.566C0.531,-0.573 0.518,-0.579 0.503,-0.585C0.488,-0.591 0.471,-0.595 0.454,-0.599C0.436,-0.602 0.419,-0.604 0.4,-0.604C0.349,-0.604 0.304,-0.594 0.266,-0.573C0.228,-0.552 0.199,-0.523 0.178,-0.484C0.158,-0.446 0.147,-0.4 0.147,-0.347C0.147,-0.292 0.158,-0.245 0.179,-0.205C0.199,-0.165 0.229,-0.134 0.266,-0.112C0.304,-0.09 0.348,-0.079 0.399,-0.079C0.416,-0.079 0.433,-0.08 0.45,-0.083C0.468,-0.086 0.485,-0.09 0.502,-0.095C0.518,-0.099 0.534,-0.106 0.549,-0.113L0.549,-0.306L0.374,-0.306C0.365,-0.306 0.358,-0.307 0.352,-0.309C0.345,-0.311 0.341,-0.315 0.338,-0.321C0.334,-0.327 0.333,-0.335 0.333,-0.348C0.333,-0.36 0.334,-0.369 0.338,-0.375C0.341,-0.381 0.346,-0.385 0.352,-0.387C0.358,-0.389 0.365,-0.39 0.374,-0.39L0.591,-0.39C0.604,-0.39 0.614,-0.388 0.621,-0.383C0.628,-0.379 0.632,-0.373 0.635,-0.366C0.638,-0.358 0.64,-0.35 0.64,-0.34L0.64,-0.094C0.64,-0.083 0.634,-0.072 0.622,-0.06C0.611,-0.049 0.594,-0.038 0.573,-0.028C0.558,-0.02 0.541,-0.013 0.522,-0.007C0.502,-0.001 0.482,0.004 0.461,0.007C0.439,0.011 0.417,0.012 0.395,0.012Z" style="fill-rule:nonzero;"/>
                </g>
                <g transform="matrix(40,0,0,40,321.443,45.3966)">
                    <path d="M0.475,0.009C0.46,0.009 0.45,0.006 0.443,0C0.437,-0.006 0.433,-0.015 0.432,-0.028L0.436,-0.078C0.429,-0.067 0.419,-0.055 0.405,-0.042C0.391,-0.028 0.372,-0.016 0.35,-0.006C0.327,0.005 0.299,0.01 0.267,0.01C0.235,0.01 0.205,0.004 0.178,-0.009C0.15,-0.022 0.126,-0.039 0.105,-0.062C0.084,-0.084 0.067,-0.11 0.055,-0.14C0.043,-0.169 0.038,-0.2 0.038,-0.234C0.038,-0.267 0.043,-0.298 0.055,-0.326C0.067,-0.355 0.084,-0.381 0.105,-0.403C0.126,-0.425 0.151,-0.442 0.178,-0.455C0.206,-0.468 0.236,-0.474 0.267,-0.474C0.296,-0.474 0.321,-0.47 0.342,-0.463C0.362,-0.455 0.38,-0.445 0.396,-0.432C0.411,-0.42 0.424,-0.406 0.435,-0.391L0.433,-0.433C0.432,-0.447 0.436,-0.458 0.443,-0.464C0.449,-0.471 0.46,-0.474 0.476,-0.474C0.489,-0.474 0.498,-0.472 0.504,-0.468C0.509,-0.464 0.513,-0.458 0.515,-0.451C0.517,-0.444 0.518,-0.434 0.518,-0.424L0.518,-0.038C0.518,-0.028 0.517,-0.02 0.515,-0.013C0.513,-0.005 0.509,0 0.503,0.004C0.497,0.007 0.488,0.009 0.475,0.009ZM0.282,-0.074C0.309,-0.074 0.333,-0.081 0.355,-0.095C0.377,-0.109 0.395,-0.128 0.408,-0.152C0.421,-0.175 0.428,-0.202 0.428,-0.233C0.428,-0.264 0.421,-0.292 0.407,-0.316C0.394,-0.339 0.376,-0.358 0.353,-0.371C0.331,-0.385 0.306,-0.392 0.28,-0.392C0.249,-0.392 0.222,-0.384 0.198,-0.37C0.175,-0.356 0.157,-0.337 0.144,-0.313C0.131,-0.289 0.124,-0.262 0.124,-0.231C0.124,-0.201 0.131,-0.174 0.144,-0.151C0.157,-0.127 0.176,-0.108 0.2,-0.095C0.223,-0.081 0.251,-0.074 0.282,-0.074Z" style="fill-rule:nonzero;"/>
                </g>
                <g transform="matrix(40,0,0,40,344.413,45.3966)">
                    <path d="M0.106,0.01C0.094,0.01 0.084,0.008 0.078,0.004C0.072,0 0.068,-0.005 0.066,-0.012C0.064,-0.018 0.063,-0.026 0.063,-0.036L0.063,-0.432C0.063,-0.441 0.064,-0.449 0.066,-0.455C0.068,-0.461 0.072,-0.466 0.079,-0.469C0.085,-0.473 0.095,-0.474 0.107,-0.474C0.122,-0.474 0.132,-0.471 0.139,-0.465C0.145,-0.459 0.148,-0.45 0.148,-0.436L0.144,-0.393C0.149,-0.403 0.156,-0.413 0.165,-0.423C0.174,-0.433 0.186,-0.442 0.199,-0.45C0.212,-0.458 0.225,-0.464 0.24,-0.469C0.255,-0.474 0.27,-0.476 0.285,-0.476C0.308,-0.476 0.329,-0.472 0.347,-0.464C0.366,-0.455 0.383,-0.443 0.397,-0.428C0.412,-0.412 0.424,-0.393 0.434,-0.371C0.448,-0.393 0.462,-0.412 0.477,-0.427C0.492,-0.443 0.509,-0.455 0.528,-0.463C0.547,-0.472 0.569,-0.476 0.593,-0.476C0.631,-0.476 0.663,-0.467 0.689,-0.448C0.714,-0.428 0.734,-0.402 0.747,-0.367C0.76,-0.333 0.766,-0.292 0.766,-0.244L0.766,-0.035C0.766,-0.026 0.765,-0.018 0.763,-0.011C0.761,-0.004 0.757,0.001 0.751,0.005C0.745,0.008 0.735,0.01 0.722,0.01C0.709,0.01 0.7,0.008 0.693,0.004C0.687,0 0.683,-0.005 0.681,-0.012C0.679,-0.019 0.678,-0.027 0.678,-0.036L0.678,-0.245C0.678,-0.275 0.674,-0.3 0.667,-0.322C0.66,-0.344 0.649,-0.361 0.635,-0.373C0.621,-0.385 0.602,-0.391 0.58,-0.391C0.556,-0.391 0.535,-0.385 0.517,-0.373C0.498,-0.361 0.484,-0.345 0.474,-0.323C0.464,-0.301 0.459,-0.275 0.459,-0.245L0.459,-0.034C0.459,-0.024 0.457,-0.015 0.453,-0.008C0.449,-0.001 0.443,0.005 0.435,0.008C0.427,0.011 0.417,0.011 0.406,0.009C0.395,0.008 0.387,0.005 0.382,0.001C0.377,-0.003 0.374,-0.008 0.372,-0.015C0.371,-0.021 0.37,-0.028 0.37,-0.036L0.37,-0.245C0.37,-0.275 0.367,-0.3 0.36,-0.322C0.353,-0.344 0.342,-0.361 0.328,-0.373C0.313,-0.385 0.295,-0.391 0.272,-0.391C0.248,-0.391 0.226,-0.385 0.208,-0.373C0.19,-0.36 0.176,-0.343 0.166,-0.321C0.156,-0.299 0.151,-0.274 0.151,-0.245L0.151,-0.035C0.151,-0.025 0.15,-0.017 0.148,-0.011C0.146,-0.004 0.142,0.001 0.135,0.005C0.129,0.008 0.119,0.01 0.106,0.01Z" style="fill-rule:nonzero;"/>
                </g>
                <g transform="matrix(40,0,0,40,377.433,45.3966)">
                    <path d="M0.291,0.015C0.251,0.015 0.215,0.008 0.184,-0.005C0.152,-0.018 0.126,-0.036 0.104,-0.059C0.083,-0.082 0.066,-0.109 0.055,-0.139C0.043,-0.169 0.038,-0.202 0.038,-0.236C0.038,-0.282 0.048,-0.323 0.07,-0.359C0.091,-0.395 0.12,-0.423 0.158,-0.444C0.196,-0.465 0.239,-0.476 0.288,-0.476C0.322,-0.476 0.351,-0.47 0.378,-0.46C0.404,-0.45 0.427,-0.436 0.445,-0.419C0.464,-0.402 0.478,-0.382 0.488,-0.361C0.498,-0.34 0.503,-0.318 0.503,-0.297C0.503,-0.263 0.495,-0.239 0.479,-0.225C0.463,-0.211 0.443,-0.205 0.42,-0.205L0.131,-0.205C0.13,-0.175 0.138,-0.15 0.155,-0.129C0.171,-0.108 0.191,-0.092 0.216,-0.081C0.241,-0.07 0.267,-0.064 0.292,-0.064C0.31,-0.064 0.326,-0.065 0.34,-0.067C0.353,-0.069 0.365,-0.071 0.375,-0.075C0.385,-0.078 0.393,-0.082 0.401,-0.085C0.408,-0.089 0.414,-0.092 0.42,-0.095C0.426,-0.098 0.432,-0.1 0.437,-0.102C0.443,-0.103 0.448,-0.102 0.454,-0.1C0.46,-0.098 0.464,-0.094 0.468,-0.087C0.472,-0.081 0.474,-0.076 0.476,-0.072C0.477,-0.067 0.478,-0.062 0.478,-0.057C0.478,-0.047 0.47,-0.037 0.454,-0.026C0.438,-0.015 0.416,-0.005 0.388,0.003C0.359,0.011 0.327,0.015 0.291,0.015ZM0.131,-0.264L0.382,-0.264C0.394,-0.264 0.404,-0.266 0.41,-0.269C0.417,-0.272 0.42,-0.281 0.42,-0.296C0.42,-0.314 0.415,-0.331 0.403,-0.346C0.392,-0.362 0.376,-0.374 0.356,-0.383C0.337,-0.392 0.314,-0.397 0.289,-0.397C0.26,-0.397 0.233,-0.391 0.209,-0.38C0.184,-0.368 0.165,-0.352 0.151,-0.332C0.137,-0.312 0.13,-0.289 0.131,-0.264Z" style="fill-rule:nonzero;"/>
                </g>
                <g transform="matrix(40,0,0,40,399.043,45.3966)">
                </g>
                <g transform="matrix(40,0,0,40,409.193,45.3966)">
                    <path d="M0.271,0.02C0.246,0.02 0.222,0.017 0.2,0.011C0.177,0.005 0.157,-0.003 0.139,-0.014C0.12,-0.024 0.104,-0.035 0.09,-0.048C0.076,-0.06 0.065,-0.073 0.057,-0.086C0.05,-0.096 0.045,-0.105 0.043,-0.112C0.041,-0.119 0.041,-0.126 0.044,-0.133C0.047,-0.14 0.053,-0.147 0.063,-0.155C0.073,-0.163 0.083,-0.167 0.091,-0.166C0.099,-0.166 0.107,-0.163 0.114,-0.157C0.121,-0.151 0.128,-0.143 0.135,-0.133C0.152,-0.11 0.172,-0.093 0.196,-0.083C0.22,-0.073 0.244,-0.068 0.267,-0.068C0.297,-0.068 0.324,-0.072 0.347,-0.08C0.37,-0.088 0.389,-0.1 0.402,-0.117C0.416,-0.133 0.423,-0.154 0.423,-0.18C0.423,-0.202 0.417,-0.22 0.407,-0.234C0.396,-0.249 0.382,-0.261 0.364,-0.271C0.346,-0.281 0.326,-0.29 0.304,-0.298C0.282,-0.306 0.26,-0.313 0.237,-0.321C0.219,-0.327 0.201,-0.334 0.184,-0.341C0.166,-0.349 0.15,-0.357 0.135,-0.367C0.119,-0.377 0.106,-0.389 0.095,-0.402C0.083,-0.415 0.074,-0.431 0.067,-0.449C0.061,-0.467 0.058,-0.488 0.058,-0.512C0.058,-0.549 0.066,-0.581 0.084,-0.609C0.102,-0.637 0.127,-0.658 0.159,-0.674C0.191,-0.69 0.228,-0.698 0.27,-0.698C0.294,-0.698 0.317,-0.696 0.338,-0.691C0.359,-0.686 0.377,-0.68 0.393,-0.672C0.409,-0.665 0.423,-0.657 0.434,-0.649C0.445,-0.64 0.454,-0.632 0.46,-0.625C0.472,-0.612 0.478,-0.602 0.48,-0.593C0.482,-0.585 0.476,-0.574 0.465,-0.561C0.454,-0.549 0.444,-0.543 0.434,-0.542C0.424,-0.541 0.413,-0.546 0.401,-0.556C0.388,-0.571 0.375,-0.582 0.362,-0.59C0.348,-0.598 0.334,-0.603 0.319,-0.607C0.304,-0.61 0.287,-0.611 0.269,-0.611C0.251,-0.611 0.235,-0.609 0.22,-0.605C0.205,-0.6 0.193,-0.594 0.182,-0.585C0.171,-0.577 0.162,-0.566 0.156,-0.554C0.15,-0.541 0.147,-0.527 0.147,-0.511C0.147,-0.493 0.152,-0.477 0.161,-0.465C0.171,-0.452 0.184,-0.441 0.2,-0.432C0.216,-0.424 0.234,-0.416 0.254,-0.409C0.274,-0.402 0.295,-0.395 0.317,-0.388C0.341,-0.381 0.364,-0.372 0.388,-0.362C0.411,-0.351 0.432,-0.338 0.451,-0.323C0.469,-0.308 0.484,-0.289 0.496,-0.267C0.507,-0.244 0.513,-0.216 0.513,-0.183C0.513,-0.15 0.507,-0.12 0.494,-0.095C0.481,-0.069 0.463,-0.048 0.44,-0.031C0.417,-0.014 0.391,-0.002 0.362,0.007C0.333,0.015 0.303,0.02 0.271,0.02Z" style="fill-rule:nonzero;"/>
                </g>
                <g transform="matrix(40,0,0,40,430.553,45.3966)">
                    <path d="M0.291,0.011C0.259,0.011 0.233,0.008 0.211,0.002C0.189,-0.005 0.172,-0.014 0.158,-0.027C0.144,-0.039 0.134,-0.056 0.128,-0.076C0.122,-0.097 0.119,-0.122 0.119,-0.152L0.119,-0.594C0.119,-0.603 0.12,-0.611 0.122,-0.618C0.124,-0.624 0.128,-0.63 0.134,-0.633C0.14,-0.637 0.15,-0.639 0.162,-0.639C0.175,-0.639 0.184,-0.637 0.191,-0.633C0.197,-0.63 0.202,-0.625 0.204,-0.618C0.206,-0.612 0.207,-0.604 0.207,-0.595L0.207,-0.152C0.207,-0.135 0.209,-0.121 0.212,-0.111C0.215,-0.1 0.219,-0.092 0.225,-0.087C0.232,-0.082 0.24,-0.078 0.251,-0.077C0.262,-0.075 0.275,-0.075 0.29,-0.075C0.301,-0.075 0.309,-0.074 0.316,-0.072C0.322,-0.07 0.327,-0.066 0.331,-0.06C0.334,-0.054 0.336,-0.045 0.336,-0.033C0.336,-0.02 0.334,-0.01 0.33,-0.004C0.326,0.002 0.321,0.006 0.314,0.008C0.308,0.01 0.3,0.011 0.291,0.011ZM0.067,-0.463L0.163,-0.462L0.302,-0.464C0.311,-0.464 0.319,-0.463 0.326,-0.461C0.332,-0.459 0.338,-0.455 0.341,-0.449C0.345,-0.443 0.347,-0.434 0.347,-0.421C0.347,-0.409 0.345,-0.399 0.342,-0.393C0.338,-0.386 0.333,-0.382 0.327,-0.38C0.32,-0.378 0.313,-0.377 0.303,-0.377L0.166,-0.379L0.065,-0.378C0.051,-0.378 0.042,-0.381 0.037,-0.388C0.031,-0.394 0.029,-0.406 0.029,-0.421C0.029,-0.436 0.032,-0.447 0.038,-0.453C0.044,-0.46 0.054,-0.463 0.067,-0.463Z" style="fill-rule:nonzero;"/>
                </g>
                <g transform="matrix(40,0,0,40,445.583,45.3966)">
                    <path d="M0.255,0.011C0.225,0.011 0.198,0.006 0.173,-0.005C0.148,-0.015 0.126,-0.03 0.108,-0.05C0.089,-0.069 0.075,-0.093 0.064,-0.12C0.054,-0.148 0.049,-0.179 0.049,-0.213L0.049,-0.43C0.049,-0.439 0.05,-0.447 0.052,-0.454C0.054,-0.461 0.058,-0.466 0.064,-0.469C0.071,-0.473 0.08,-0.475 0.093,-0.475C0.106,-0.475 0.115,-0.473 0.122,-0.469C0.128,-0.465 0.132,-0.46 0.134,-0.453C0.136,-0.446 0.137,-0.438 0.137,-0.429L0.137,-0.212C0.137,-0.184 0.142,-0.16 0.151,-0.139C0.161,-0.118 0.175,-0.102 0.193,-0.091C0.212,-0.079 0.235,-0.074 0.263,-0.074C0.291,-0.074 0.315,-0.079 0.336,-0.091C0.356,-0.102 0.371,-0.118 0.382,-0.139C0.393,-0.16 0.399,-0.185 0.399,-0.212L0.399,-0.43C0.399,-0.44 0.4,-0.448 0.402,-0.454C0.404,-0.461 0.408,-0.466 0.414,-0.469C0.421,-0.473 0.43,-0.475 0.443,-0.475C0.456,-0.475 0.465,-0.473 0.471,-0.469C0.477,-0.465 0.481,-0.46 0.483,-0.453C0.485,-0.446 0.486,-0.438 0.486,-0.429L0.486,-0.032C0.486,-0.024 0.485,-0.017 0.483,-0.01C0.481,-0.004 0.477,0.001 0.471,0.004C0.465,0.008 0.456,0.01 0.443,0.01C0.434,0.01 0.426,0.009 0.421,0.007C0.415,0.005 0.411,0.002 0.408,-0.002C0.405,-0.005 0.403,-0.009 0.402,-0.013C0.401,-0.018 0.401,-0.022 0.401,-0.027L0.405,-0.07C0.399,-0.062 0.391,-0.053 0.381,-0.044C0.372,-0.034 0.361,-0.025 0.349,-0.017C0.336,-0.009 0.322,-0.002 0.307,0.003C0.291,0.008 0.274,0.011 0.255,0.011Z" style="fill-rule:nonzero;"/>
                </g>
                <g transform="matrix(40,0,0,40,467.283,45.3966)">
                    <path d="M0.272,0.01C0.242,0.01 0.213,0.004 0.186,-0.008C0.159,-0.02 0.135,-0.037 0.114,-0.059C0.094,-0.081 0.078,-0.106 0.066,-0.136C0.055,-0.166 0.049,-0.199 0.049,-0.234C0.049,-0.269 0.055,-0.301 0.066,-0.33C0.078,-0.359 0.094,-0.385 0.115,-0.406C0.135,-0.428 0.159,-0.445 0.186,-0.457C0.213,-0.469 0.242,-0.475 0.272,-0.475C0.305,-0.475 0.334,-0.469 0.361,-0.457C0.387,-0.445 0.409,-0.428 0.428,-0.406C0.447,-0.384 0.462,-0.359 0.472,-0.329C0.482,-0.3 0.487,-0.268 0.487,-0.233C0.487,-0.197 0.482,-0.165 0.472,-0.136C0.462,-0.106 0.448,-0.081 0.429,-0.059C0.41,-0.037 0.388,-0.02 0.361,-0.008C0.335,0.004 0.305,0.01 0.272,0.01ZM0.285,-0.075C0.313,-0.075 0.338,-0.081 0.361,-0.095C0.383,-0.108 0.4,-0.127 0.414,-0.15C0.427,-0.174 0.433,-0.201 0.433,-0.232C0.433,-0.263 0.427,-0.29 0.414,-0.314C0.401,-0.338 0.383,-0.356 0.36,-0.37C0.338,-0.383 0.313,-0.39 0.285,-0.39C0.257,-0.39 0.232,-0.383 0.209,-0.37C0.186,-0.356 0.168,-0.338 0.155,-0.314C0.142,-0.29 0.136,-0.263 0.136,-0.232C0.136,-0.201 0.142,-0.174 0.155,-0.15C0.168,-0.127 0.186,-0.108 0.209,-0.095C0.232,-0.081 0.257,-0.075 0.285,-0.075ZM0.481,0.01C0.466,0.01 0.455,0.008 0.449,0.002C0.442,-0.004 0.438,-0.012 0.437,-0.025L0.437,-0.651C0.437,-0.661 0.438,-0.669 0.44,-0.676C0.441,-0.683 0.445,-0.688 0.451,-0.692C0.458,-0.695 0.467,-0.697 0.48,-0.697C0.493,-0.697 0.502,-0.695 0.508,-0.692C0.514,-0.688 0.519,-0.683 0.521,-0.676C0.523,-0.67 0.524,-0.662 0.524,-0.652L0.524,-0.036C0.524,-0.027 0.523,-0.019 0.521,-0.012C0.519,-0.005 0.515,0.001 0.509,0.005C0.503,0.008 0.494,0.01 0.481,0.01Z" style="fill-rule:nonzero;"/>
                </g>
                <g transform="matrix(40,0,0,40,490.703,45.3966)">
                    <path d="M0.112,0.011C0.099,0.011 0.09,0.009 0.083,0.005C0.077,0.001 0.073,-0.004 0.071,-0.011C0.069,-0.018 0.068,-0.026 0.068,-0.035L0.068,-0.43C0.068,-0.439 0.069,-0.447 0.071,-0.454C0.073,-0.46 0.077,-0.465 0.083,-0.469C0.09,-0.472 0.099,-0.474 0.113,-0.474C0.126,-0.474 0.135,-0.472 0.141,-0.468C0.147,-0.465 0.151,-0.459 0.153,-0.453C0.155,-0.446 0.156,-0.438 0.156,-0.428L0.156,-0.034C0.156,-0.025 0.155,-0.017 0.153,-0.01C0.151,-0.003 0.147,0.002 0.141,0.005C0.134,0.009 0.125,0.011 0.112,0.011ZM0.112,-0.594C0.097,-0.594 0.086,-0.596 0.079,-0.601C0.072,-0.605 0.067,-0.611 0.065,-0.619C0.062,-0.627 0.061,-0.636 0.061,-0.647C0.061,-0.658 0.062,-0.667 0.065,-0.674C0.067,-0.682 0.072,-0.687 0.08,-0.691C0.087,-0.695 0.098,-0.697 0.113,-0.697C0.127,-0.697 0.138,-0.695 0.145,-0.691C0.152,-0.687 0.157,-0.681 0.159,-0.673C0.162,-0.665 0.163,-0.656 0.163,-0.645C0.163,-0.634 0.162,-0.625 0.159,-0.618C0.157,-0.61 0.152,-0.604 0.145,-0.6C0.138,-0.596 0.127,-0.594 0.112,-0.594Z" style="fill-rule:nonzero;"/>
                </g>
                <g transform="matrix(40,0,0,40,499.263,45.3966)">
                    <path d="M0.282,0.016C0.25,0.016 0.218,0.009 0.189,-0.003C0.159,-0.016 0.132,-0.033 0.109,-0.055C0.085,-0.078 0.067,-0.104 0.054,-0.134C0.04,-0.164 0.034,-0.197 0.034,-0.232C0.034,-0.266 0.04,-0.298 0.053,-0.328C0.065,-0.358 0.083,-0.384 0.106,-0.407C0.129,-0.43 0.155,-0.448 0.185,-0.46C0.214,-0.473 0.246,-0.48 0.28,-0.48C0.326,-0.48 0.368,-0.469 0.405,-0.447C0.442,-0.425 0.471,-0.396 0.493,-0.359C0.515,-0.321 0.526,-0.279 0.526,-0.233C0.526,-0.196 0.519,-0.163 0.506,-0.133C0.493,-0.102 0.475,-0.076 0.452,-0.054C0.429,-0.032 0.403,-0.015 0.374,-0.003C0.345,0.01 0.314,0.016 0.282,0.016ZM0.28,-0.071C0.308,-0.071 0.334,-0.078 0.358,-0.092C0.382,-0.106 0.402,-0.125 0.416,-0.15C0.431,-0.174 0.438,-0.203 0.438,-0.234C0.438,-0.265 0.431,-0.293 0.418,-0.317C0.404,-0.341 0.385,-0.36 0.361,-0.373C0.337,-0.387 0.31,-0.393 0.279,-0.393C0.25,-0.393 0.223,-0.386 0.199,-0.372C0.175,-0.358 0.156,-0.339 0.142,-0.315C0.128,-0.291 0.121,-0.264 0.121,-0.233C0.121,-0.201 0.129,-0.173 0.143,-0.149C0.158,-0.124 0.177,-0.105 0.201,-0.091C0.225,-0.077 0.252,-0.071 0.28,-0.071Z" style="fill-rule:nonzero;"/>
                </g>
                <g transform="matrix(40,0,0,40,521.643,45.3966)">
                </g>
            </g>
            <g transform="matrix(1.73247,0,0,2.09823,566.615,118.626)">
                <g transform="matrix(60,0,0,60,293.933,45.3966)">
                    <path d="M0.116,0.01C0.098,0.01 0.084,0.007 0.076,0.002C0.067,-0.004 0.062,-0.011 0.06,-0.02C0.058,-0.029 0.057,-0.04 0.057,-0.051L0.057,-0.423C0.057,-0.434 0.058,-0.444 0.06,-0.453C0.062,-0.462 0.068,-0.469 0.076,-0.474C0.085,-0.479 0.098,-0.482 0.117,-0.482C0.136,-0.482 0.149,-0.479 0.157,-0.474C0.165,-0.468 0.171,-0.461 0.173,-0.452C0.175,-0.443 0.176,-0.432 0.176,-0.421L0.176,-0.05C0.176,-0.039 0.175,-0.028 0.173,-0.019C0.171,-0.01 0.165,-0.003 0.157,0.002C0.149,0.007 0.135,0.01 0.116,0.01ZM0.116,-0.579C0.096,-0.579 0.082,-0.581 0.073,-0.587C0.064,-0.593 0.058,-0.601 0.056,-0.611C0.054,-0.621 0.053,-0.632 0.053,-0.644C0.053,-0.656 0.054,-0.667 0.056,-0.677C0.059,-0.686 0.065,-0.694 0.074,-0.699C0.083,-0.705 0.097,-0.708 0.117,-0.708C0.137,-0.708 0.151,-0.705 0.16,-0.699C0.169,-0.693 0.174,-0.685 0.177,-0.675C0.179,-0.665 0.181,-0.654 0.181,-0.642C0.181,-0.63 0.179,-0.62 0.177,-0.61C0.174,-0.6 0.169,-0.592 0.16,-0.587C0.151,-0.581 0.136,-0.579 0.116,-0.579Z" style="fill:rgb(0,77,255);fill-rule:nonzero;"/>
                </g>
                <g transform="matrix(60,0,0,60,306.113,45.3966)">
                    <path d="M0.29,0.013C0.258,0.013 0.226,0.007 0.196,-0.004C0.166,-0.015 0.138,-0.032 0.114,-0.053C0.09,-0.074 0.07,-0.1 0.056,-0.131C0.042,-0.162 0.035,-0.197 0.035,-0.237C0.035,-0.276 0.042,-0.311 0.056,-0.342C0.07,-0.373 0.09,-0.399 0.114,-0.42C0.137,-0.441 0.165,-0.458 0.195,-0.469C0.225,-0.48 0.256,-0.486 0.288,-0.486C0.311,-0.486 0.333,-0.482 0.354,-0.476C0.375,-0.469 0.393,-0.461 0.409,-0.452C0.424,-0.443 0.435,-0.433 0.442,-0.424C0.451,-0.416 0.458,-0.408 0.464,-0.401C0.47,-0.394 0.472,-0.385 0.47,-0.374C0.468,-0.367 0.465,-0.361 0.461,-0.355C0.457,-0.349 0.452,-0.344 0.446,-0.338C0.43,-0.32 0.414,-0.313 0.399,-0.318C0.39,-0.322 0.381,-0.327 0.373,-0.333C0.364,-0.338 0.355,-0.343 0.346,-0.349C0.337,-0.354 0.328,-0.358 0.319,-0.361C0.309,-0.364 0.299,-0.366 0.288,-0.366C0.262,-0.366 0.24,-0.361 0.22,-0.35C0.2,-0.339 0.185,-0.323 0.174,-0.304C0.163,-0.285 0.158,-0.262 0.158,-0.237C0.158,-0.211 0.163,-0.189 0.174,-0.169C0.185,-0.15 0.2,-0.135 0.22,-0.124C0.239,-0.113 0.261,-0.107 0.286,-0.107C0.298,-0.107 0.309,-0.109 0.32,-0.112C0.331,-0.115 0.341,-0.119 0.35,-0.124C0.358,-0.129 0.365,-0.134 0.371,-0.139C0.378,-0.143 0.385,-0.148 0.391,-0.152C0.397,-0.156 0.403,-0.158 0.41,-0.158C0.418,-0.158 0.425,-0.155 0.433,-0.149C0.441,-0.143 0.45,-0.135 0.459,-0.123C0.467,-0.113 0.472,-0.103 0.473,-0.094C0.474,-0.084 0.472,-0.075 0.467,-0.067C0.462,-0.058 0.454,-0.05 0.443,-0.043C0.435,-0.035 0.423,-0.027 0.407,-0.018C0.391,-0.01 0.373,-0.003 0.353,0.004C0.333,0.01 0.312,0.013 0.29,0.013Z" style="fill:rgb(0,77,255);fill-rule:nonzero;"/>
                </g>
                <g transform="matrix(60,0,0,60,336.143,45.3966)">
                    <path d="M0.106,0.01C0.087,0.01 0.074,0.007 0.065,0.002C0.057,-0.004 0.051,-0.011 0.05,-0.021C0.048,-0.03 0.047,-0.04 0.047,-0.051L0.047,-0.648C0.047,-0.659 0.048,-0.669 0.05,-0.678C0.052,-0.687 0.058,-0.694 0.066,-0.7C0.075,-0.705 0.088,-0.708 0.107,-0.708C0.126,-0.708 0.139,-0.705 0.148,-0.699C0.156,-0.694 0.161,-0.687 0.163,-0.678C0.165,-0.669 0.167,-0.658 0.167,-0.647L0.167,-0.421C0.18,-0.436 0.198,-0.451 0.219,-0.464C0.24,-0.476 0.265,-0.483 0.295,-0.483C0.335,-0.483 0.372,-0.473 0.404,-0.454C0.436,-0.434 0.461,-0.407 0.48,-0.372C0.499,-0.337 0.508,-0.296 0.508,-0.25L0.508,-0.05C0.508,-0.039 0.507,-0.029 0.505,-0.02C0.503,-0.011 0.497,-0.004 0.489,0.002C0.481,0.007 0.468,0.01 0.449,0.01C0.43,0.01 0.417,0.007 0.408,0.002C0.399,-0.004 0.394,-0.011 0.392,-0.02C0.39,-0.029 0.389,-0.04 0.389,-0.052L0.389,-0.251C0.389,-0.274 0.385,-0.295 0.377,-0.312C0.369,-0.329 0.357,-0.342 0.341,-0.352C0.325,-0.362 0.306,-0.367 0.283,-0.367C0.251,-0.367 0.225,-0.357 0.204,-0.339C0.182,-0.321 0.17,-0.297 0.167,-0.269L0.167,-0.05C0.167,-0.039 0.165,-0.029 0.163,-0.02C0.161,-0.011 0.155,-0.003 0.147,0.002C0.139,0.007 0.125,0.01 0.106,0.01Z" style="fill:rgb(0,77,255);fill-rule:nonzero;"/>
                </g>
                <g transform="matrix(60,0,0,60,368.213,45.3966)">
                    <path d="M0.282,0.017C0.25,0.017 0.218,0.01 0.188,-0.002C0.158,-0.015 0.13,-0.032 0.106,-0.055C0.082,-0.077 0.062,-0.104 0.048,-0.135C0.034,-0.166 0.027,-0.199 0.027,-0.236C0.027,-0.271 0.034,-0.304 0.047,-0.335C0.06,-0.365 0.078,-0.392 0.102,-0.416C0.125,-0.439 0.152,-0.457 0.182,-0.47C0.212,-0.483 0.245,-0.49 0.28,-0.49C0.327,-0.49 0.369,-0.479 0.407,-0.457C0.445,-0.434 0.475,-0.404 0.498,-0.366C0.521,-0.328 0.532,-0.285 0.532,-0.237C0.532,-0.199 0.525,-0.164 0.511,-0.133C0.497,-0.102 0.478,-0.075 0.454,-0.053C0.43,-0.031 0.403,-0.014 0.373,-0.002C0.343,0.011 0.313,0.017 0.282,0.017ZM0.28,-0.102C0.302,-0.102 0.323,-0.108 0.343,-0.119C0.363,-0.13 0.38,-0.145 0.393,-0.166C0.406,-0.186 0.413,-0.211 0.413,-0.239C0.413,-0.265 0.407,-0.288 0.395,-0.308C0.384,-0.328 0.368,-0.344 0.348,-0.355C0.328,-0.366 0.305,-0.372 0.279,-0.372C0.254,-0.372 0.232,-0.366 0.212,-0.354C0.192,-0.342 0.176,-0.326 0.164,-0.306C0.152,-0.286 0.147,-0.263 0.147,-0.238C0.147,-0.21 0.153,-0.185 0.166,-0.165C0.179,-0.145 0.195,-0.129 0.216,-0.118C0.236,-0.107 0.257,-0.102 0.28,-0.102Z" style="fill:rgb(0,77,255);fill-rule:nonzero;"/>
                </g>
                <g transform="matrix(60,0,0,60,401.753,45.3966)">
                    <path d="M0.111,0.009C0.093,0.009 0.079,0.006 0.071,0.001C0.063,-0.005 0.058,-0.012 0.056,-0.021C0.054,-0.03 0.053,-0.041 0.053,-0.052L0.053,-0.426C0.053,-0.437 0.054,-0.446 0.056,-0.455C0.058,-0.463 0.063,-0.47 0.072,-0.475C0.08,-0.48 0.094,-0.483 0.112,-0.483C0.128,-0.483 0.14,-0.481 0.148,-0.477C0.156,-0.472 0.161,-0.468 0.164,-0.462C0.166,-0.456 0.168,-0.45 0.168,-0.444C0.168,-0.438 0.169,-0.433 0.17,-0.43L0.166,-0.398C0.17,-0.408 0.176,-0.419 0.186,-0.429C0.195,-0.439 0.207,-0.448 0.22,-0.457C0.233,-0.465 0.248,-0.471 0.264,-0.476C0.279,-0.481 0.295,-0.484 0.312,-0.484C0.343,-0.484 0.371,-0.478 0.396,-0.467C0.421,-0.456 0.442,-0.44 0.459,-0.419C0.477,-0.398 0.49,-0.374 0.5,-0.345C0.509,-0.317 0.514,-0.285 0.514,-0.25L0.514,-0.051C0.514,-0.04 0.512,-0.029 0.51,-0.02C0.508,-0.011 0.503,-0.004 0.495,0.001C0.487,0.006 0.473,0.009 0.454,0.009C0.435,0.009 0.421,0.006 0.413,0.001C0.404,-0.005 0.399,-0.012 0.397,-0.021C0.395,-0.03 0.394,-0.041 0.394,-0.052L0.394,-0.251C0.394,-0.275 0.389,-0.295 0.381,-0.313C0.373,-0.33 0.361,-0.343 0.345,-0.353C0.329,-0.362 0.31,-0.367 0.286,-0.367C0.262,-0.367 0.242,-0.362 0.225,-0.353C0.208,-0.343 0.194,-0.329 0.185,-0.312C0.176,-0.295 0.171,-0.274 0.171,-0.251L0.171,-0.051C0.171,-0.04 0.17,-0.029 0.168,-0.02C0.166,-0.011 0.16,-0.004 0.152,0.001C0.144,0.006 0.13,0.009 0.111,0.009Z" style="fill:rgb(0,77,255);fill-rule:nonzero;"/>
                </g>
                <g transform="matrix(60,0,0,60,435.353,45.3966)">
                </g>
            </g>
            <g transform="matrix(1.57232,0,0,7.42762,648.908,-834.894)">
                <rect x="174.123" y="144.817" width="250.29" height="1.787" style="fill:url(#_Linear1);"/>
            </g>
        </g>
        <g id="Layer2">
        </g>
    </g>
    <defs>
        <linearGradient id="_Linear1" x1="0" y1="0" x2="1" y2="0" gradientUnits="userSpaceOnUse" gradientTransform="matrix(3.84165e-16,1.77231,-6.2739,1.08523e-16,312.926,144.734)"><stop offset="0" style="stop-color:rgb(0,77,255);stop-opacity:1"/><stop offset="1" style="stop-color:black;stop-opacity:1"/></linearGradient>
    </defs>
<style xmlns="" type="text/css" id="igtranslator-color"/></svg>